# xmcd
#
# Track frame offsets: 
#        150
#        8581
#        16282
#        39706
#        84478
#        112758
#        132463
#        157115
#
# Disc length: 2336 seconds
#
# Revision: 0
# Processed by: cddbd v1.5.2PL0 Copyright (c) Steve Scherf et al.
# Submitted via: ExactAudioCopyFreeDBPlugin 1.0
#
DISCID=58091e08
DTITLE=B.B. King - 1971 - Live In Cook County Jail
DYEAR=1971
DGENRE=
TTITLE0=Introduction
TTITLE1=Everyday I Have The Blues
TTITLE2=How Blues Can You Get
TTITLE3=Worry, Worry, Worry
TTITLE4=3 O'Clock Blues - Darlin' You Know I Love You
TTITLE5=Sweet Sixteen
TTITLE6=The Thrill Is Gone
TTITLE7=Please Accept My Love
EXTD=
EXTT0=
EXTT1=
EXTT2=
EXTT3=
EXTT4=
EXTT5=
EXTT6=
EXTT7=
PLAYORDER=
